<svg xmlns="http://www.w3.org/2000/svg" id="R&#xE9;teg_1" data-name="R&#xE9;teg 1" viewBox="0 0 4806.5 1415.85"><defs><style>      .cls-1, .cls-2 {        fill: #4d4a48;      }      .cls-1, .cls-3, .cls-4 {        fill-rule: evenodd;      }      .cls-3 {        fill: #e5097f;      }      .cls-4 {        fill: #00a0e4;      }    </style></defs><g><polygon class="cls-1" points="1116.5 403.14 1199.49 961.12 1283.76 403.14 1371.85 403.14 1269.71 1022.41 1130.56 1022.41 1028.39 403.14 1116.5 403.14 1116.5 403.14"></polygon><path class="cls-1" d="M222.83,590.1H118.25s-20.52-1.54-29.88,7.81c-8.84,8.84-8.57,29.88-8.57,29.88V739.5q0,24.22,7.67,31.92c5.1,5.1,15.78,7.67,31.92,7.67h63.87c16.16,0,39.8-.54,39.8-.54s-.23-22.9-.23-39V590.1ZM210,854.41H92.57q-100.81,0-100.88-100.87V613.37s-5.91-45.79,23.53-74.77c25-24.58,77-23.84,77-23.84H222.83V350.06q0-25.57-7.68-32.56t-31.89-7h-60q-25.5,0-32.56,7c-4.66,4.66-7,15.51-7,32.56v56.18H-4.46V336q0-100.89,100.85-100.87H210q100.91,0,100.89,100.87v518.4Z" transform="translate(1444 168)"></path><path class="cls-1" d="M915,590.1H810.4s-20.52-1.54-29.89,7.81c-8.84,8.84-8.57,29.88-8.57,29.88V739.5q0,24.22,7.68,31.92c5.1,5.1,15.78,7.67,31.91,7.67H875.4c16.17,0,39.81-.54,39.81-.54s-.23-22.9-.23-39V590.1Zm-12.8,264.31H784.72q-100.82,0-100.89-100.87V613.37s-5.91-45.79,23.53-74.77c25-24.58,77-23.84,77-23.84H915V350.06q0-25.57-7.69-32.56t-31.89-7h-60c-17,0-27.88,2.33-32.56,7s-7,15.51-7,32.56v56.18H687.68V336q0-100.89,100.86-100.87H902.18q100.92,0,100.89,100.87v518.4Z" transform="translate(1444 168)"></path><path class="cls-1" d="M593.08,235.14h26.83v76.6H581.59q-80.43,0-80.44,95.77v446.9H413V235.14h88.12v71.5A118.69,118.69,0,0,1,535,256.2q23.57-21.07,58.08-21.06Z" transform="translate(1444 168)"></path><polygon class="cls-1" points="2450.78 201.38 2325.64 363.55 2246.47 363.55 2346.07 201.38 2450.78 201.38 2450.78 201.38"></polygon><polygon class="cls-1" points="2812.1 403.14 2812.1 478.46 2598.85 947.07 2812.1 947.07 2812.1 1022.41 2510.77 1022.41 2510.77 947.07 2724.02 478.46 2523.52 478.46 2523.52 403.14 2812.1 403.14 2812.1 403.14"></polygon><path class="cls-1" d="M1634.93,740.77V623.31q0-24.25-7.64-31.92t-32-7.67h-62.55q-100.86,0-100.86-100.87V336q0-100.85,100.86-100.87h86.84q100.83,0,100.87,100.87v62.57h-86.83v-49.8c0-17-2.37-27.88-7-32.56s-15.53-7-32.56-7h-35.77q-25.54,0-32.56,7t-7,32.56v121.3q0,24.26,7,31.92t32.56,7.66h62.56q100.84,0,100.91,100.87v143q0,100.88-100.91,100.87h-85.53q-100.9,0-100.85-100.87V691h86.8v49.79q0,24.27,7,31.92c4.69,5.11,15.5,7.67,32.55,7.67h34.46q24.27,0,32-7.67t7.64-31.92Z" transform="translate(1444 168)"></path><polygon class="cls-2" points="3280.7 612.53 3280.7 686.6 3530.97 686.6 3530.97 612.53 3280.7 612.53 3280.7 612.53"></polygon><path class="cls-1" d="M2567.05,235.14l-144.29,292.4,144.29,326.87h-94.5L2332.12,527.54l140.43-292.4ZM2215.9,854.41V.18H2304V854.41Z" transform="translate(1444 168)"></path><path class="cls-1" d="M2953.91,33.38,2828.82,195.55h-79.18l99.58-162.17ZM2719,499.44h143V350c0-16.15-2.57-26.8-7.64-31.92s-15.78-7.66-31.94-7.66h-63.84q-24.24,0-31.93,7.66T2719,350v149.4Zm12.76-264.31h117.48q100.84,0,100.87,100.88V574.77H2719V739.49q0,25.56,7.65,32.55t31.93,7h60q25.53,0,32.55-7t7-32.55V683.3h88.12v70.24q0,100.86-100.89,100.87H2731.74q-100.84,0-100.85-100.87V336q0-100.86,100.85-100.88Z" transform="translate(1444 168)"></path><path class="cls-1" d="M3274.38,739.49V350q0-24.23-7-31.92c-4.71-5.1-15.53-7.66-32.56-7.66h-51.09q-23,0-33.18,10.21t-10.23,35.76V733.1q0,25.57,10.23,35.75t33.18,10.22h51.09c17,0,27.84-2.33,32.56-7s7-15.5,7-32.55Zm-63.83-504.35h51.07q100.85,0,100.88,100.87V753.54q0,100.86-100.88,100.87h-51.07q-56.21,0-70.22-42.14v379h-88.11V235.14h88.11v42.13q14.05-42.15,70.22-42.13Z" transform="translate(1444 168)"></path><path class="cls-1" d="M-266.79,996.4a36.68,36.68,0,0,0-11.13,16.49V989.8h-28.44v199.92h28.44V1045.45q0-30.92,26-30.92h12.37V989.8h-8.66c-7.42,0-13.6,2.06-18.55,6.6Z" transform="translate(1444 168)"></path><path class="cls-1" d="M-219,1022.37v134.79c0,21.84,10.72,32.56,32.57,32.56h36.68c21.85,0,32.57-10.72,32.57-32.56v-22.67H-145.6v18.14c0,5.36-.82,9.07-2.06,10.3-1.65,1.65-5.36,2.47-10.72,2.47h-19.36c-5.36,0-8.66-.82-10.31-2.47-1.65-1.23-2.48-4.94-2.48-10.3v-53.18h74.61v-77.08c0-21.85-10.72-32.57-32.56-32.57H-186.4c-21.85,0-32.57,10.72-32.57,32.57Zm28.44,4.53c0-5.36.83-8.66,2.48-10.31s5-2.47,10.31-2.47h20.6c5.37,0,8.66.83,10.31,2.47s2.47,4.95,2.47,10.31v48.23h-46.17V1026.9Z" transform="translate(1444 168)"></path><path class="cls-1" d="M-.08,989.8l-45.35,94.4L-.08,1189.72h30.5L-16.16,1084.2l46.58-94.4Zm-54.41,199.92V914H-82.94v275.77Z" transform="translate(1444 168)"></path><polygon class="cls-2" points="1495.02 1081.95 1495.02 1357.72 1523.47 1357.72 1523.47 1081.95 1495.02 1081.95 1495.02 1081.95"></polygon><path class="cls-1" d="M186.23,1003.4c-2.89-9.07-10.72-13.6-22.68-13.6H147.07c-21.85,0-32.56,10.72-32.56,32.57v134.78c0,21.85,10.71,32.57,32.56,32.57h16.48c12,0,19.79-4.53,22.68-13.6v13.6h28.44V989.8H186.23v13.6Zm-40.81,159.53c-1.65-1.23-2.48-4.94-2.48-10.3V1026.9c0-5.36.83-8.66,2.48-10.31,1.24-1.64,4.94-2.47,10.3-2.47h16.49c4.95,0,8.66,1.24,10.72,3.3s3.3,6.18,3.3,11.54v121.61c0,5.36-1.24,9.48-3.3,11.54s-5.77,3.29-10.72,3.29H155.72c-5.36,0-9.06-.83-10.3-2.47Zm41.63-238.26L154.91,977h25.55l40.39-52.36Z" transform="translate(1444 168)"></path><path class="cls-1" d="M349.46,1006.29c-4.53-11.13-14.43-16.49-30.09-16.49H302.88c-11.95,0-19.79,4.53-22.67,13.6V989.8H251.77v199.92h28.44V1029c0-5.36,1.24-9.48,3.3-11.54s5.77-3.3,10.71-3.3h16.5c5.35,0,9.06.83,10.71,2.47,1.24,1.65,2.06,4.95,2.06,10.31v162.82h28.44V1029c0-5.36,1.24-9.48,3.3-11.54s5.77-3.3,10.72-3.3h16.49c5.36,0,9.06.83,10.71,2.47,1.24,1.65,2.07,4.95,2.07,10.31v162.82h28.44V1022.37c0-21.85-10.72-32.57-32.56-32.57H374.61c-14,0-22.26,5.37-25.15,16.49Z" transform="translate(1444 168)"></path><path class="cls-1" d="M575.34,1147.54c14.43,0,26.8-5,37.1-15.26s15.25-22.66,15.25-37.09-4.94-26.8-15.25-37.1-22.67-15.26-37.1-15.26-26.38,5-36.69,15.26S523,1080.76,523,1095.19s5.36,26.79,15.66,37.09,22.26,15.26,36.69,15.26Z" transform="translate(1444 168)"></path><path class="cls-1" d="M798.75,1003.4c-2.89-9.07-10.72-13.6-22.68-13.6H759.58c-21.84,0-32.55,10.72-32.55,32.57v134.78c0,21.85,10.71,32.57,32.55,32.57h16.49c12,0,19.79-4.53,22.68-13.6v13.6h28.44V989.8H798.75v13.6Zm-40.81,159.53c-1.65-1.23-2.47-4.94-2.47-10.3V1026.9c0-5.36.82-8.66,2.47-10.31,1.24-1.64,4.94-2.47,10.3-2.47h16.49c4.95,0,8.66,1.24,10.72,3.3s3.3,6.18,3.3,11.54v121.61c0,5.36-1.24,9.48-3.3,11.54s-5.77,3.29-10.72,3.29H768.24c-5.36,0-9.06-.83-10.3-2.47Z" transform="translate(1444 168)"></path><path class="cls-1" d="M893.56,946.93V913.54H863.47v33.39Zm-31.33,274.12c-1.65,1.65-5.36,2.48-10.72,2.48h-5.77v24.32h14.42c21.85,0,32.57-10.72,32.57-32.57V989.8H864.29v221c0,5.36-.83,8.65-2.06,10.3Z" transform="translate(1444 168)"></path><path class="cls-1" d="M999.49,1003.4c-2.89-9.07-10.72-13.6-22.67-13.6H960.33c-21.85,0-32.56,10.72-32.56,32.57v134.78c0,21.85,10.71,32.57,32.56,32.57h16.49c11.95,0,19.78-4.53,22.67-13.6v13.6h28.44V989.8H999.49v13.6Zm-40.81,159.53c-1.65-1.23-2.48-4.94-2.48-10.3V1026.9c0-5.36.83-8.66,2.48-10.31,1.23-1.64,4.94-2.47,10.31-2.47h16.48c4.95,0,8.66,1.24,10.72,3.3s3.3,6.18,3.3,11.54v121.61c0,5.36-1.24,9.48-3.3,11.54s-5.77,3.29-10.72,3.29H969c-5.37,0-9.08-.83-10.31-2.47Zm41.63-238.26L968.16,977h25.56l40.4-52.36Z" transform="translate(1444 168)"></path><path class="cls-1" d="M1093.47,1003.4V989.8H1065v199.92h28.44V1029c0-5.36,1.24-9.48,3.3-11.54s5.77-3.3,10.71-3.3H1124c5.36,0,9.07.83,10.72,2.47,1.24,1.65,2.06,4.95,2.06,10.31v162.82h28.44V1022.37c0-21.85-10.71-32.57-32.56-32.57h-16.48c-12,0-19.79,4.53-22.69,13.6Z" transform="translate(1444 168)"></path><path class="cls-1" d="M1272,1003c-2.88-9.07-10.72-13.6-22.67-13.6h-16.49c-21.84,0-32.56,10.71-32.56,32.57v135.2c0,21.84,10.72,32.56,32.56,32.56h16.49c12,0,19.79-4.53,22.67-13.6v13.6h28.45V914H1272v89Zm-40.81,159.94c-1.64-1.24-2.47-4.94-2.47-10.3V1026.49c0-5.36.82-9.07,2.47-10.72,1.24-1.24,4.95-2.06,10.31-2.06h16.49c4.94,0,8.65,1.24,10.71,3.3s3.3,6.18,3.3,11.54v122c0,5.35-1.24,9.47-3.3,11.54s-5.77,3.29-10.71,3.29h-16.49c-5.36,0-9.07-.82-10.31-2.47Z" transform="translate(1444 168)"></path><path class="cls-1" d="M1337.49,1022.37v134.79c0,21.84,10.72,32.56,32.57,32.56h36.68c21.85,0,32.57-10.72,32.57-32.56v-22.67h-28.45v18.14c0,5.36-.82,9.07-2.06,10.3-1.65,1.65-5.36,2.47-10.72,2.47h-19.37c-5.35,0-8.65-.82-10.31-2.47-1.64-1.23-2.46-4.94-2.46-10.3v-53.18h74.6v-77.08c0-21.85-10.71-32.57-32.56-32.57h-37.92c-21.85,0-32.57,10.72-32.57,32.57Zm28.45,4.53c0-5.36.81-8.66,2.46-10.31s5-2.47,10.31-2.47h20.61c5.36,0,8.66.83,10.3,2.47s2.48,4.95,2.48,10.31v48.23h-46.16V1026.9Zm42-102.23L1375.83,977h25.55l40.4-52.36Z" transform="translate(1444 168)"></path><path class="cls-1" d="M1556.37,989.8,1511,1084.2l45.34,105.52h30.5L1540.3,1084.2l46.57-94.4ZM1502,1189.72V914h-28.44v275.77Z" transform="translate(1444 168)"></path><path class="cls-1" d="M1724.14,1147.54c14.43,0,26.79-5,37.09-15.26s15.26-22.66,15.26-37.09-4.94-26.8-15.26-37.1-22.66-15.26-37.09-15.26-26.38,5-36.69,15.26-15.66,22.67-15.66,37.1,5.36,26.79,15.66,37.09,22.26,15.26,36.69,15.26Z" transform="translate(1444 168)"></path><path class="cls-1" d="M1947.55,1003c-2.88-9.07-10.72-13.6-22.67-13.6h-16.49c-21.85,0-32.56,10.71-32.56,32.57v135.2c0,21.84,10.71,32.56,32.56,32.56h16.49c11.95,0,19.79-4.53,22.66-13.6v13.6H1976V914h-28.45v89Zm-40.81,159.94c-1.65-1.24-2.47-4.94-2.47-10.3V1026.49c0-5.36.82-9.07,2.47-10.72,1.24-1.24,5-2.06,10.3-2.06h16.49c5,0,8.66,1.24,10.72,3.3s3.29,6.18,3.29,11.54v122c0,5.35-1.24,9.47-3.3,11.54s-5.77,3.29-10.72,3.29H1917c-5.35,0-9.06-.82-10.3-2.47Z" transform="translate(1444 168)"></path><path class="cls-1" d="M2013.09,1022.37v134.79c0,21.84,10.72,32.56,32.57,32.56h36.68c21.85,0,32.57-10.72,32.57-32.56v-22.67h-28.45v18.14c0,5.36-.82,9.07-2.06,10.3-1.65,1.65-5.36,2.47-10.72,2.47h-19.37c-5.35,0-8.65-.82-10.31-2.47-1.64-1.23-2.46-4.94-2.46-10.3v-53.18h74.6v-77.08c0-21.85-10.71-32.57-32.56-32.57h-37.92c-21.85,0-32.57,10.72-32.57,32.57Zm28.45,4.53c0-5.36.81-8.66,2.46-10.31s4.95-2.47,10.31-2.47h20.61c5.36,0,8.66.83,10.31,2.47s2.47,4.95,2.47,10.31v48.23h-46.16V1026.9Z" transform="translate(1444 168)"></path><path class="cls-1" d="M2232,989.8l-45.35,94.4L2232,1189.72h30.5l-46.58-105.52,46.58-94.4Zm-54.42,199.92V914h-28.44v275.77Z" transform="translate(1444 168)"></path><path class="cls-1" d="M2281,1022.37v134.79c0,21.84,10.72,32.56,32.56,32.56h42c21.84,0,32.56-10.72,32.56-32.56V1022.37c0-21.85-10.72-32.57-32.56-32.57h-42c-21.84,0-32.56,10.72-32.56,32.57Zm76.67,140.56c-1.64,1.65-4.95,2.47-10.31,2.47h-25.55c-5.36,0-8.66-.82-10.32-2.47-1.64-1.23-2.46-4.94-2.46-10.3V1026.9c0-5.36.82-8.66,2.46-10.31s5-2.47,10.32-2.47h25.56c5.36,0,8.65.83,10.3,2.47s2.47,4.95,2.47,10.31v125.73c0,5.36-.82,9.07-2.47,10.3Z" transform="translate(1444 168)"></path><path class="cls-1" d="M2462.82,996.4a36.52,36.52,0,0,0-11.13,16.49V989.8h-28.45v199.92h28.45V1045.45q0-30.92,26-30.92H2490V989.8h-8.66c-7.41,0-13.6,2.06-18.55,6.6Z" transform="translate(1444 168)"></path><path class="cls-1" d="M2580.29,1003.4c-2.88-9.07-10.71-13.6-22.67-13.6h-16.49c-21.84,0-32.56,10.72-32.56,32.57v134.78c0,21.85,10.71,32.57,32.56,32.57h16.49c12,0,19.79-4.53,22.67-13.6v13.6h28.45V989.8h-28.45v13.6Zm-40.8,159.53c-1.66-1.23-2.48-4.94-2.48-10.3V1026.9c0-5.36.81-8.66,2.46-10.31,1.24-1.64,4.95-2.47,10.31-2.47h16.49c4.94,0,8.66,1.24,10.72,3.3s3.29,6.18,3.29,11.54v121.61c0,5.36-1.23,9.48-3.29,11.54s-5.78,3.29-10.72,3.29h-16.49c-5.36,0-9.07-.83-10.31-2.47Zm41.63-238.26L2549,977h25.56l40.4-52.36Z" transform="translate(1444 168)"></path><path class="cls-1" d="M2746.83,1022.37c0-21.85-10.72-32.57-32.57-32.57h-37.93c-21.84,0-32.56,10.72-32.56,32.57v134.79c0,21.84,10.71,32.56,32.56,32.56h37.93c21.85,0,32.56-10.72,32.56-32.56v-26.79h-28.45v22.26c0,5.36-.82,9.07-2.06,10.3-1.65,1.65-5.36,2.47-10.72,2.47H2685c-5.37,0-9.08-.82-10.32-2.47-1.64-1.23-2.47-4.94-2.47-10.3V1026.9c0-5.36.82-8.66,2.47-10.31,1.24-1.64,5-2.47,10.31-2.47h20.61c5.36,0,9.07.83,10.72,2.47,1.24,1.65,2.06,4.95,2.06,10.31v22.26h28.45v-26.79Z" transform="translate(1444 168)"></path><path class="cls-1" d="M2809.07,946.93V913.54H2779v33.39Zm-.83,242.79V989.8H2779.8v199.92Zm0-199.92v0Z" transform="translate(1444 168)"></path><path class="cls-1" d="M2843.28,1022.37v134.79c0,21.84,10.72,32.56,32.57,32.56h42.05c21.84,0,32.56-10.72,32.56-32.56V1022.37c0-21.85-10.72-32.57-32.57-32.57h-42c-21.85,0-32.57,10.72-32.57,32.57ZM2920,1162.93c-1.64,1.65-4.94,2.47-10.3,2.47h-25.56c-5.35,0-8.65-.82-10.31-2.47-1.64-1.23-2.46-4.94-2.46-10.3V1026.9c0-5.36.82-8.66,2.46-10.31s5-2.47,10.31-2.47h25.56c5.36,0,8.65.83,10.3,2.47s2.48,4.95,2.48,10.31v125.73c0,5.36-.83,9.07-2.48,10.3Zm-5.77-238.26L2882,977h25.56l40.4-52.36Z" transform="translate(1444 168)"></path><polygon class="cls-3" points="425.33 357.07 243.44 0 243.44 357.07 425.33 357.07 425.33 357.07"></polygon><polygon class="cls-3" points="935.28 1361.72 642.73 787.42 237.93 1206.5 237.93 1361.72 935.28 1361.72 935.28 1361.72"></polygon><polygon class="cls-4" points="0 411.29 916.18 411.29 0 1359.76 0 411.29 0 411.29"></polygon></g></svg>