<?xml version="1.0" encoding="UTF-8" standalone="no"?>
<!-- Created with Inkscape (http://www.inkscape.org/) -->

<svg
   width="210mm"
   height="297mm"
   viewBox="0 0 210 297"
   version="1.1"
   id="svg1"
   inkscape:version="1.4.3 (0d15f75, 2025-12-25)"
   sodipodi:docname="tshirt_front.svg"
   xmlns:inkscape="http://www.inkscape.org/namespaces/inkscape"
   xmlns:sodipodi="http://sodipodi.sourceforge.net/DTD/sodipodi-0.dtd"
   xmlns="http://www.w3.org/2000/svg"
   xmlns:svg="http://www.w3.org/2000/svg">
  <sodipodi:namedview
     id="namedview1"
     pagecolor="#ffffff"
     bordercolor="#000000"
     borderopacity="0.25"
     inkscape:showpageshadow="2"
     inkscape:pageopacity="0.0"
     inkscape:pagecheckerboard="0"
     inkscape:deskcolor="#d1d1d1"
     inkscape:document-units="mm"
     inkscape:zoom="0.44"
     inkscape:cx="390.90909"
     inkscape:cy="705.68182"
     inkscape:window-width="1253"
     inkscape:window-height="910"
     inkscape:window-x="2571"
     inkscape:window-y="168"
     inkscape:window-maximized="0"
     inkscape:current-layer="layer1" />
  <defs
     id="defs1">
    <radialGradient
       id="SVGID_2_"
       cx="514.68109"
       cy="115.6954"
       r="57.8074"
       gradientUnits="userSpaceOnUse"
       gradientTransform="matrix(0.57263248,0,0,0.52953484,-189.33348,-26.2397)">
		<stop
   offset="0.5149"
   style="stop-color:#9ca3af"
   id="stop19" />

		<stop
   offset="0.8681"
   style="stop-color:#8b9299"
   id="stop20" />

		<stop
   offset="1"
   style="stop-color:#8b9299"
   id="stop21" />

	</radialGradient>
  </defs>
  <g
     inkscape:label="Layer 1"
     inkscape:groupmode="layer"
     id="layer1">
    <path
       class="st0"
       d="m 37.108308,64.310757 c 0,0 -2.468045,0.714881 -5.96683,5.406557 -3.504511,4.691676 -29.9944894,53.112336 -29.9944894,53.112336 0,0 11.4469244,15.19234 40.2789694,16.95571 l 3.916805,-11.95691 c -0.0056,0 -1.380044,-50.37994 -8.234455,-63.517693 z"
       id="path2"
       style="fill:#8b9299;stroke-width:0.550661" />
    <path
       class="st0"
       d="m 173.45785,64.310757 c 0,0 2.47376,0.714881 5.97254,5.406557 3.49878,4.691676 29.9945,53.112336 29.9945,53.112336 0,0 -11.44694,15.19234 -40.27324,16.95571 l -3.92255,-11.95691 c 0,0 1.37432,-50.37994 8.22875,-63.517693 z"
       id="path3"
       style="fill:#8b9299;stroke-width:0.550661" />
    <path
       class="st0"
       d="M 173.76705,64.310757 128.43174,47.058512 c 0,0 -7.66755,5.591892 -22.71632,5.099419 C 90.660898,52.645102 82.855923,47.058512 82.855923,47.058512 L 37.520604,64.310757 c 0,0 7.913781,56.458993 7.913781,85.212733 0,28.75374 -7.913781,92.13906 -7.913781,92.13906 32.37091,7.58295 68.126086,7.71532 68.126086,7.71532 0,0 35.75517,-0.1323 68.1261,-7.71532 0,0 -7.91379,-63.38532 -7.91379,-92.13906 -0.007,-28.75374 7.90805,-85.212733 7.90805,-85.212733 z"
       id="path4"
       style="fill:#8b9299;stroke-width:0.550661" />
    <path
       class="st1"
       d="m 60.92409,55.779946 c 0,0 -14.831178,16.410282 -12.466204,34.139136 2.364972,17.728818 7.089188,70.184528 19.43515,95.199748 12.345946,25.01522 49.635764,44.44387 70.382264,5.83018 20.74647,-38.61368 24.42276,-92.043746 24.15937,-102.973346 -0.26341,-10.929593 -12.31162,-32.195718 -12.31162,-32.195718 l 23.39204,8.901493 c 0,0 -6.08708,43.691911 -2.67418,45.878881 3.4129,2.18698 10.91438,-16.992771 10.91438,-16.992771 0,0 -7.77635,38.963181 -2.85744,35.743611 4.91891,-3.21428 14.71665,-27.56759 14.71665,-27.56759 0,0 -11.8764,29.7016 -6.29322,29.45801 5.58317,-0.24358 19.61265,-14.13856 19.61265,-14.13856 l 2.18746,5.71897 c 0,0 -9.82065,11.88805 -22.87667,14.47747 -13.05602,2.58944 -16.60061,2.10757 -16.60061,2.10757 l -2.74291,-7.19639 c 0,0 -3.99125,16.75977 1.28842,53.67366 5.27967,36.91386 4.99336,55.51641 4.99336,55.51641 0,0 -40.94897,7.12755 -74.299084,8.10718 -33.350108,0.97965 -61.901565,-7.853 -61.901565,-7.853 0,0 9.122034,-68.56946 8.354706,-86.08647 -0.7616,-17.51702 -0.320673,-24.53864 -0.320673,-24.53864 l -3.607586,8.37725 c 0,0 -15.684405,0.52952 -25.505051,-5.51247 C 6.0830804,127.81258 1.0553674,122.64432 1.0553674,122.64432 l 3.2811834,-5.53366 c 0,0 15.4954352,8.01188 23.3748602,7.04283 7.879421,-0.96906 1.25979,-29.484499 1.25979,-29.484499 0,0 4.432175,19.280359 8.543676,12.724729 4.1115,-6.55566 0.04582,-42.733462 0.04582,-42.733462 z"
       id="path5"
       style="fill:#8b9299;stroke-width:0.550661" />
    <path
       class="st2"
       d="m 40.755978,64.310757 c 0,0 1.992762,45.254043 -0.887581,53.657753 -2.88034,8.40371 -5.319755,-3.48432 -5.319755,-3.48432 0,0 3.103667,13.73083 -4.20885,15.37238 -7.312516,1.64156 -24.1536387,-2.25581 -24.1536387,-2.25581 0,0 8.3146247,5.94668 19.1316517,8.9968 10.822754,3.0554 16.096701,2.77474 16.096701,2.77474 l 3.607585,-8.37724 c -0.0056,0 2.158824,-49.024304 -4.266113,-66.684303 z"
       id="path6"
       style="fill:#737c85;stroke-width:0.550661" />
    <path
       class="st2"
       d="m 173.52083,64.68674 c 0,0 -6.67119,47.54691 -4.45509,51.84673 2.21609,4.30513 7.08919,-6.35442 7.08919,-6.35442 0,0 -3.99124,19.26449 0,22.13457 3.99126,2.87007 6.87159,-2.87008 6.87159,-2.87008 0,0 -0.76733,4.55929 6.42494,3.67495 7.19228,-0.88961 11.74469,-3.05539 11.74469,-3.05539 0,0 -9.64313,6.10552 -16.29138,7.59882 -6.64826,1.49328 -15.53553,2.52588 -15.53553,2.52588 l -3.327,-9.18213 c 0,-0.0102 -1.36287,-36.198994 7.47859,-66.31893 z"
       id="path7"
       style="fill:#737c85;stroke-width:0.550661" />
    <path
       class="st3"
       d="m 45.016364,130.99506 c 0,0 0,0.38657 0.01147,1.11204 0.137432,9.46807 1.735078,76.62369 19.435157,92.425 19.0572,17.00866 71.802389,17.21519 82.436169,-3.89207 10.63952,-21.10727 19.06865,-96.73013 19.06865,-96.73013 0,0 -0.52109,42.41044 1.31708,57.38567 1.84385,14.96997 6.78569,60.32991 6.78569,60.32991 0,0 -35.4517,9.2298 -75.192388,7.853 -39.740691,-1.37677 -61.019716,-8.10718 -61.019716,-8.10718 0,0 7.427043,-93.49997 7.15218,-109.98437"
       id="path8"
       style="fill:#8b9299;stroke-width:0.550661" />
    <path
       class="st4"
       d="m 105.53216,249.76974 c 0,0 -0.007,0 -0.007,0 -0.35503,0 -36.178922,-0.2171 -68.223435,-7.72593 -0.206147,-0.0424 -0.343579,-0.22769 -0.320673,-0.42361 0.08017,-0.63544 7.91378,-63.69247 7.91378,-92.09671 0,-4.49575 -0.200412,-9.97114 -0.589811,-16.28849 l -2.187456,6.66685 c -0.05727,0.17473 -0.223326,0.28595 -0.4352,0.27536 C 12.982023,138.42445 1.1972471,123.20561 1.0827211,123.05204 0.996819,122.93551 0.985378,122.78199 1.0540911,122.64961 2.1363666,120.66914 27.607061,74.149512 31.082938,69.489619 34.621807,64.739678 37.170023,63.966557 37.278823,63.9348 L 82.574557,46.693132 c 0.143174,-0.05295 0.303496,-0.03176 0.423748,0.05295 0.07441,0.05295 7.896612,5.507162 22.584625,5.014696 0.65853,0.02118 1.27123,0.03178 1.87252,0.03178 13.49693,0 20.52887,-4.993514 20.59758,-5.046469 0.12028,-0.09002 0.28057,-0.105914 0.42375,-0.05296 l 45.3296,17.252233 c 0.0744,0.01601 2.61692,0.794314 6.16151,5.544242 3.47014,4.665207 28.94085,51.184856 30.02888,53.160006 0.0688,0.12703 0.0515,0.28065 -0.0344,0.40243 -0.11454,0.15352 -11.8993,15.37241 -40.59962,17.12518 -0.20626,0.016 -0.37222,-0.10065 -0.4352,-0.27536 l -2.18746,-6.66685 c -0.3951,6.31735 -0.5898,11.79274 -0.5898,16.28848 0,28.40426 7.8336,91.46128 7.91377,92.09671 0.0229,0.19594 -0.11455,0.37596 -0.32069,0.42362 -32.03305,7.50882 -67.85693,7.72063 -68.21197,7.72594 z M 37.869909,241.3713 c 31.80401,7.39233 67.209871,7.61472 67.662251,7.61472 0.45811,0 35.85826,-0.2277 67.66227,-7.61472 -0.62418,-5.06764 -7.8737,-64.48673 -7.8737,-91.84781 0,-5.02528 0.24624,-11.25792 0.73295,-18.52843 0.0109,-0.19073 0.16601,-0.34418 0.37223,-0.36537 0.21759,-0.0213 0.3951,0.0953 0.45238,0.27537 l 2.77726,8.46724 c 26.31819,-1.71568 38.04571,-14.85875 39.4773,-16.58502 -1.9355,-3.5267 -26.53008,-48.394169 -29.85134,-52.852861 -3.34418,-4.485148 -5.73205,-5.247679 -5.75495,-5.25298 L 128.38592,47.503321 c -1.32278,0.889619 -8.92733,5.485981 -22.79649,5.041172 -0.60699,0.02118 -1.23118,0.03176 -1.84388,0.03176 -12.723896,0 -19.790171,-4.230985 -21.061418,-5.072944 L 37.572143,64.670823 c -0.05727,0.02126 -2.439416,0.783724 -5.78359,5.268885 -3.321269,4.453378 -27.9215595,49.326162 -29.8513312,52.852872 1.4258536,1.72627 13.1533672,14.86934 39.4772842,16.58503 l 2.777266,-8.46726 c 0.06298,-0.18014 0.23478,-0.29125 0.452381,-0.27536 0.206147,0.0213 0.360758,0.17472 0.377938,0.36538 0.486735,7.27052 0.732967,13.50312 0.732967,18.52839 -0.0056,27.35581 -7.260978,86.77488 -7.885149,91.84253 z"
       id="path9"
       style="fill:#737c85;stroke-width:0.550661" />
    <path
       class="st6"
       d="m 128.35157,46.979081 c 0,0 -3.69921,17.421699 -22.81941,17.813548 C 86.411969,64.40078 82.712762,46.979081 82.712762,46.979081 l -5.388469,1.985756 c 5.176594,22.081601 28.202127,20.805428 28.202127,20.805428 0,0 23.03131,1.270885 28.20789,-20.805428 z"
       id="path19"
       style="fill:#9ca3af;stroke-width:0.550661" />
    <path
       class="st7"
       d="m 128.24277,47.206781 c 0,0 -7.63893,5.570705 -22.6419,5.083535 -15.002965,0.48717 -22.785031,-5.083535 -22.785031,-5.083535 l -0.04587,0.01582 c 0.526812,2.091665 4.96472,17.204576 22.756401,17.569956 17.80315,-0.36538 22.22961,-15.478291 22.76215,-17.569956 z"
       id="path21"
       style="fill:url(#SVGID_2_);stroke-width:0.550661" />
    <path
       class="st4"
       d="m 77.324293,48.964837 c 0.223329,0.730758 0.423749,1.466811 0.669973,2.192274 0.274867,0.714872 0.486742,1.44563 0.813134,2.139319 0.303497,0.698989 0.606994,1.403268 0.979204,2.075775 0.33786,0.6884 0.750155,1.339727 1.156729,1.991055 0.418014,0.640724 0.853218,1.281474 1.334225,1.88514 l 0.727246,0.905504 0.790239,0.857855 c 0.257678,0.291249 0.538266,0.556003 0.824588,0.826072 0.286308,0.264767 0.555455,0.550701 0.864673,0.789012 l 0.904756,0.751928 0.950575,0.698977 c 0.652798,0.444813 1.305596,0.884337 1.998478,1.270884 0.681441,0.402465 1.391498,0.762531 2.10729,1.106731 0.721525,0.344199 1.460211,0.64075 2.2161,0.926684 0.750141,0.280659 1.51175,0.524246 2.2848,0.751941 1.546101,0.439537 3.132293,0.76253 4.735667,0.979648 0.80169,0.11128 1.60909,0.185322 2.41651,0.232997 0.80169,0.04764 1.62628,0.07402 2.40505,0.03701 h 0.0229 0.0229 c 0.77877,0.03189 1.60336,0.0064 2.40505,-0.03701 0.8074,-0.04764 1.6091,-0.127031 2.41651,-0.232997 1.60339,-0.217118 3.18956,-0.540111 4.74139,-0.979648 0.77306,-0.222394 1.53467,-0.471282 2.28481,-0.746639 0.75015,-0.285935 1.48886,-0.587787 2.21036,-0.926685 0.72154,-0.3442 1.43159,-0.704278 2.1073,-1.106718 0.69287,-0.381271 1.35141,-0.826084 2.00421,-1.270884 l 0.95056,-0.69899 0.90476,-0.75194 c 0.30924,-0.238285 0.57263,-0.524246 0.86467,-0.789013 0.28632,-0.264767 0.57263,-0.534835 0.8246,-0.826071 l 0.79024,-0.857842 0.72725,-0.900203 c 0.48101,-0.608967 0.91046,-1.244403 1.33422,-1.885153 0.40083,-0.656616 0.81887,-1.302668 1.151,-1.991054 0.37793,-0.672508 0.68143,-1.371498 0.98492,-2.075776 0.3264,-0.698977 0.53827,-1.429741 0.81314,-2.139318 0.24052,-0.725463 0.44092,-1.456222 0.66426,-2.186979 -0.18331,0.736054 -0.33787,1.487992 -0.54401,2.21875 -0.2405,0.725463 -0.42946,1.472111 -0.72725,2.181678 -0.27486,0.714881 -0.54972,1.435051 -0.89902,2.128739 -0.31494,0.70958 -0.71007,1.376787 -1.088,2.059897 -1.60339,2.67414 -3.76219,5.078237 -6.35623,6.995147 -0.65853,0.471282 -1.31705,0.937275 -2.0214,1.345016 -0.69287,0.428934 -1.42012,0.799589 -2.15882,1.159681 -0.7387,0.35479 -1.49457,0.672508 -2.26189,0.969058 -0.76733,0.291236 -1.55183,0.550702 -2.34208,0.789013 -1.58618,0.460678 -3.20672,0.804878 -4.85019,1.037875 -0.81886,0.11653 -1.64345,0.206527 -2.47378,0.259478 -0.8303,0.05302 -1.65489,0.08465 -2.51385,0.05827 h 0.0459 c -0.85894,0.02638 -1.67209,-0.0064 -2.51386,-0.05827 -0.8303,-0.05302 -1.65489,-0.142897 -2.47377,-0.259478 -1.643442,-0.232997 -3.263984,-0.577197 -4.850195,-1.037875 -0.790212,-0.23301 -1.569009,-0.497777 -2.336339,-0.789013 -0.767316,-0.29655 -1.523191,-0.614268 -2.261891,-0.969058 -0.7387,-0.360092 -1.465946,-0.730747 -2.158828,-1.159681 -0.704337,-0.407741 -1.362869,-0.879036 -2.021388,-1.350305 -2.594031,-1.916936 -4.752859,-4.321007 -6.356218,-6.995159 -0.377944,-0.677809 -0.773064,-1.350317 -1.082281,-2.059897 -0.349301,-0.693688 -0.624169,-1.408557 -0.904756,-2.128727 -0.297777,-0.70958 -0.481022,-1.45622 -0.727246,-2.181685 -0.183245,-0.746643 -0.343581,-1.493288 -0.526826,-2.22934 z"
       id="path22"
       style="fill:#737c85;stroke-width:0.550661" />
    <path
       class="st8"
       d="m 128.35157,46.979081 c 0,0 -0.15453,0.926686 -0.69863,2.483519 -0.55544,1.551537 -1.47164,3.759698 -3.14946,6.126723 -1.66636,2.35112 -4.10006,4.903492 -7.44995,6.698609 -1.66063,0.900203 -3.51595,1.615084 -5.46292,2.091668 -1.95269,0.48716 -3.99697,0.736061 -6.04126,0.794301 -2.06149,-0.05826 -4.11151,-0.312417 -6.064194,-0.794301 -1.952668,-0.481872 -3.802265,-1.196754 -5.462897,-2.096957 -3.349906,-1.789828 -5.789322,-4.347476 -7.455688,-6.698621 -1.677806,-2.367025 -2.594018,-4.580477 -3.149473,-6.126719 -0.544,-1.556831 -0.698616,-2.483517 -0.698616,-2.483517 0,0 0.229063,0.9108 0.853232,2.43586 0.618434,1.525062 1.677806,3.653787 3.389976,5.93609 0.858953,1.138501 1.895415,2.303471 3.132298,3.399611 1.236897,1.090839 2.685654,2.096957 4.294747,2.9601 1.614814,0.852554 3.407165,1.530363 5.296841,1.975176 1.889694,0.45539 3.865274,0.677783 5.840844,0.720157 1.98705,-0.04239 3.97408,-0.264767 5.86377,-0.714881 1.88968,-0.450089 3.68774,-1.122597 5.29685,-1.980452 1.60909,-0.857842 3.05786,-1.863959 4.29475,-2.9601 1.23688,-1.09614 2.26762,-2.26111 3.12656,-3.399611 1.71218,-2.282303 2.77156,-4.411028 3.39,-5.93609 0.62416,-1.519766 0.85322,-2.430565 0.85322,-2.430565 z"
       id="path23"
       style="opacity:0.3;fill:#8b9299;stroke-width:0.550661" />
    <g
       id="g101"
       transform="matrix(0.57263249,0,0,0.52953483,-189.33348,-26.239701)">
		<path
   class="st13"
   d="m 401.81,171 c 2.55,10.25 4.39,20.65 5.92,31.1 1.52,10.45 2.61,20.96 3.33,31.5 0.6,10.55 0.9,21.13 0.49,31.7 -0.47,10.56 -1.51,21.14 -3.74,31.46 0.85,-10.53 1.15,-21.01 1.13,-31.5 -0.07,-2.62 -0.12,-5.25 -0.14,-7.87 0,-2.62 -0.19,-5.24 -0.27,-7.86 -0.13,-5.24 -0.5,-10.48 -0.8,-15.72 l -0.53,-7.86 c -0.16,-2.62 -0.45,-5.23 -0.64,-7.85 -0.18,-2.62 -0.43,-5.23 -0.67,-7.85 l -0.73,-7.85 c -1.05,-10.46 -2.17,-20.92 -3.35,-31.4 z"
   id="path101"
   style="fill:#737c85" />

	</g>
    <g
       id="g102"
       transform="matrix(0.57263249,0,0,0.52953483,-189.33348,-26.239701)">
		<path
   class="st13"
   d="m 621.84,301.16 c -0.32,-10.87 -0.21,-21.73 0.11,-32.58 0.14,-5.43 0.39,-10.85 0.65,-16.28 0.26,-5.42 0.65,-10.84 0.99,-16.26 0.46,-5.41 0.85,-10.83 1.41,-16.24 0.54,-5.41 1.16,-10.81 1.88,-16.2 l 1.2,-8.07 c 0.41,-2.69 0.96,-5.36 1.44,-8.04 0.47,-2.68 1.17,-5.33 1.79,-7.97 0.17,-0.66 0.31,-1.32 0.49,-1.98 l 0.61,-1.95 1.26,-3.88 -0.77,4 -0.4,1.99 c -0.11,0.67 -0.19,1.34 -0.29,2.01 -0.35,2.69 -0.84,5.34 -1.07,8.04 -0.67,5.37 -1.13,10.76 -1.67,16.14 -0.4,5.4 -0.96,10.78 -1.32,16.19 -0.46,5.39 -0.83,10.8 -1.23,16.2 l -2.37,32.43 c -0.82,10.81 -1.65,21.63 -2.71,32.45 z"
   id="path102"
   style="fill:#737c85" />

	</g>
    <g
       id="g103"
       transform="matrix(0.57263249,0,0,0.52953483,-189.33348,-26.239701)">
		<path
   class="st14"
   d="m 416.22,198.36 c 0.55,10.63 1.3,21.21 2.13,31.77 l 0.67,7.92 c 0.22,2.64 0.44,5.28 0.72,7.91 l 0.74,7.91 0.83,7.9 c 0.25,2.64 0.57,5.26 0.85,7.9 0.28,2.63 0.59,5.26 0.92,7.89 l 0.92,7.89 c 0.35,2.63 0.69,5.25 1.01,7.88 0.63,5.27 1.39,10.51 2.06,15.78 0.66,5.27 1.48,10.52 2.04,15.82 -1.43,-5.13 -2.77,-10.28 -3.97,-15.47 -1.12,-5.2 -2.31,-10.4 -3.21,-15.65 -2.01,-10.46 -3.38,-21.04 -4.59,-31.62 -0.5,-5.3 -1.02,-10.61 -1.36,-15.93 -0.19,-2.66 -0.31,-5.32 -0.44,-7.98 l -0.19,-3.99 -0.09,-4 c -0.26,-10.64 -0.15,-21.32 0.96,-31.93 z"
   id="path103"
   style="fill:#9ca3af" />

	</g>
    <g
       id="g104"
       transform="matrix(0.57263249,0,0,0.52953483,-189.33348,-26.239701)">
		<path
   class="st14"
   d="m 595.84,223.87 c -0.22,12.57 -1.18,25.12 -2.63,37.61 -0.32,3.13 -0.76,6.24 -1.18,9.36 -0.4,3.12 -0.88,6.23 -1.37,9.34 -0.93,6.22 -2.14,12.4 -3.29,18.59 -2.51,12.34 -5.57,24.57 -9.26,36.61 -3.78,12.02 -8.38,23.78 -13.93,35.05 2.07,-5.95 4.5,-11.72 6.25,-17.74 2.06,-5.91 3.65,-11.97 5.44,-17.97 l 2.35,-9.08 c 0.39,-1.52 0.81,-3.02 1.16,-4.54 l 1.04,-4.58 c 0.67,-3.05 1.49,-6.08 2.09,-9.15 l 1.91,-9.19 c 1.2,-6.14 2.41,-12.28 3.44,-18.46 0.55,-3.08 1.1,-6.16 1.57,-9.26 0.47,-3.1 1.02,-6.18 1.46,-9.28 0.93,-6.2 1.83,-12.4 2.63,-18.62 0.91,-6.21 1.59,-12.45 2.32,-18.69 z"
   id="path104"
   style="fill:#9ca3af" />

	</g>
    <g
       id="g108"
       transform="matrix(0.57263249,0,0,0.52953483,-189.33348,-26.239701)">
		<path
   class="st14"
   d="m 375.65,220.15 c 2.83,4.86 5.17,9.94 7.33,15.08 2.18,5.14 4.09,10.38 5.82,15.68 1.73,5.3 3.26,10.67 4.5,16.11 1.3,5.43 2.3,10.94 2.87,16.52 -2.19,-5.18 -4.01,-10.42 -5.86,-15.65 -1.84,-5.23 -3.59,-10.48 -5.31,-15.75 -1.7,-5.27 -3.37,-10.55 -4.94,-15.87 -1.6,-5.31 -3.13,-10.66 -4.41,-16.12 z"
   id="path108"
   style="fill:#9ca3af" />

	</g>
    <g
       id="g109"
       transform="matrix(0.57263249,0,0,0.52953483,-189.33348,-26.239701)">
		<path
   class="st14"
   d="m 385.9,201.01 c 1.62,3.6 2.77,7.31 3.79,11.06 0.99,3.75 1.78,7.54 2.39,11.36 0.62,3.82 1.03,7.68 1.25,11.55 0.19,3.88 0.19,7.78 -0.27,11.69 -1.2,-3.76 -2.03,-7.52 -2.85,-11.28 -0.79,-3.77 -1.47,-7.54 -2.08,-11.33 -0.6,-3.79 -1.12,-7.59 -1.52,-11.42 -0.39,-3.84 -0.72,-7.69 -0.71,-11.63 z"
   id="path109"
   style="fill:#9ca3af" />

	</g>
    <g
       id="g110"
       transform="matrix(0.57263249,0,0,0.52953483,-189.33348,-26.239701)">
		<path
   class="st14"
   d="m 630.42,292.67 c 0.34,-6.35 1.22,-12.63 2.3,-18.86 1.08,-6.24 2.43,-12.43 4.05,-18.55 1.6,-6.13 3.51,-12.19 5.81,-18.12 1.1,-2.98 2.43,-5.88 3.8,-8.76 0.76,-1.41 1.48,-2.83 2.25,-4.22 0.86,-1.36 1.71,-2.7 2.61,-4 -2.26,5.93 -3.97,11.95 -5.7,17.97 -1.71,6.02 -3.3,12.09 -4.9,18.15 l -4.88,18.21 c -1.66,6.06 -3.38,12.13 -5.34,18.18 z"
   id="path110"
   style="fill:#9ca3af" />

	</g>
    <g
       id="g111"
       transform="matrix(0.57263249,0,0,0.52953483,-189.33348,-26.239701)">
		<path
   class="st14"
   d="m 648.88,301.16 c 0.3,-5.31 1.13,-10.52 2.14,-15.7 1.02,-5.17 2.32,-10.29 3.86,-15.34 1.52,-5.05 3.35,-10.03 5.54,-14.87 2.23,-4.79 4.73,-9.6 8.34,-13.55 -2.18,4.83 -3.8,9.75 -5.41,14.69 -1.61,4.94 -3.14,9.91 -4.65,14.9 -1.52,4.98 -3.07,9.97 -4.65,14.96 -1.61,4.98 -3.25,9.96 -5.17,14.91 z"
   id="path111"
   style="fill:#9ca3af" />

	</g>
  </g>
</svg>
