<?xml version="1.0" encoding="UTF-8" standalone="no"?>
<!-- Created with Inkscape (http://www.inkscape.org/) -->

<svg
   width="210mm"
   height="297mm"
   viewBox="0 0 210 297"
   version="1.1"
   id="svg1"
   inkscape:version="1.4.3 (0d15f75, 2025-12-25)"
   sodipodi:docname="tshirt_back.svg"
   xmlns:inkscape="http://www.inkscape.org/namespaces/inkscape"
   xmlns:sodipodi="http://sodipodi.sourceforge.net/DTD/sodipodi-0.dtd"
   xmlns="http://www.w3.org/2000/svg"
   xmlns:svg="http://www.w3.org/2000/svg">
  <sodipodi:namedview
     id="namedview1"
     pagecolor="#ffffff"
     bordercolor="#000000"
     borderopacity="0.25"
     inkscape:showpageshadow="2"
     inkscape:pageopacity="0.0"
     inkscape:pagecheckerboard="0"
     inkscape:deskcolor="#d1d1d1"
     inkscape:document-units="mm"
     inkscape:zoom="0.44"
     inkscape:cx="388.63636"
     inkscape:cy="539.77273"
     inkscape:window-width="1253"
     inkscape:window-height="910"
     inkscape:window-x="2571"
     inkscape:window-y="168"
     inkscape:window-maximized="0"
     inkscape:current-layer="layer1" />
  <defs
     id="defs1" />
  <g
     inkscape:label="Layer 1"
     inkscape:groupmode="layer"
     id="layer1">
    <path
       class="st0"
       d="m 37.533643,59.097 c 0,0 -2.460937,0.742387 -5.949665,5.61464 -3.494428,4.872255 -29.9082034,55.15656 -29.9082034,55.15656 0,0 11.4139944,15.77707 40.1631004,17.6083 l 3.905539,-12.4171 c -0.0064,0 -1.38178,-52.318989 -8.210771,-65.9624 z"
       id="path10"
       style="fill:#8b9299;stroke-width:0.560351" />
    <path
       class="st0"
       d="m 173.49093,59.097 c 0,0 2.46666,0.742387 5.95537,5.61464 3.48871,4.872255 29.90821,55.15656 29.90821,55.15656 0,0 -11.41401,15.77707 -40.15739,17.6083 l -3.91126,-12.4171 c -0.007,0 1.37036,-52.318989 8.20507,-65.9624 z"
       id="path11"
       style="fill:#8b9299;stroke-width:0.560351" />
    <path
       class="st0"
       d="m 173.79926,59.097 -45.2049,-17.916253 c 0,0 -7.64549,5.80711 -22.65097,5.295687 C 90.93217,46.982357 83.149644,41.180747 83.149644,41.180747 L 37.944753,59.097 c 0,0 7.891011,58.63203 7.891011,88.49244 0,29.86044 -7.891011,95.68535 -7.891011,95.68535 32.277801,7.87479 67.930107,8.01227 67.930107,8.01227 0,0 35.65232,-0.1374 67.93011,-8.01227 0,0 -7.891,-65.82491 -7.891,-95.68535 -0.007,-29.86041 7.88529,-88.49244 7.88529,-88.49244 z"
       id="path12"
       style="fill:#8b9299;stroke-width:0.560351" />
    <path
       class="st1"
       d="m 61.280914,50.237858 c 0,0 -14.788519,17.041888 -12.430348,35.453068 2.358171,18.411184 7.068793,72.885834 19.379241,98.863874 12.310446,25.97799 49.492993,46.15442 70.179793,6.05456 C 159.09639,150.5095 162.76213,95.023 162.49946,83.672737 162.23681,72.322475 150.22329,50.237858 150.22329,50.237858 l 23.32474,9.244084 c 0,0 -6.06959,45.373548 -2.66651,47.644718 3.40308,2.27115 10.88868,-17.641315 10.88868,-17.641315 0,0 -7.75398,40.462805 -2.84921,37.119315 4.90476,-3.33798 14.67433,-28.628613 14.67433,-28.628613 0,0 -11.84223,30.844773 -6.27514,30.591813 5.56711,-0.25296 19.55623,-14.68275 19.55623,-14.68275 l 2.18117,5.9391 c 0,0 -9.79238,12.3456 -22.81085,15.03469 -13.01845,2.68907 -16.55284,2.18866 -16.55284,2.18866 l -2.73504,-7.47335 c 0,0 -3.97976,17.40483 1.28474,55.73945 5.26445,38.33462 4.97897,57.65318 4.97897,57.65318 0,0 -40.83114,7.40187 -74.085317,8.41921 -33.254191,1.01734 -61.723502,-8.15525 -61.723502,-8.15525 0,0 9.09579,-71.2086 8.330673,-89.39981 -0.75942,-18.19122 -0.319759,-25.4831 -0.319759,-25.4831 l -3.597196,8.69967 c 0,0 -15.639291,0.54993 -25.431687,-5.72463 C 6.6090864,125.04841 1.5901263,119.68122 1.5901263,119.68122 L 4.861872,113.9346 c 0,0 15.450859,8.32023 23.307614,7.31388 7.856756,-1.00634 1.256168,-30.619302 1.256168,-30.619302 0,0 4.419421,20.022422 8.519099,13.214472 4.099676,-6.807963 0.04574,-44.378206 0.04574,-44.378206 z"
       id="path13"
       style="fill:#8b9299;stroke-width:0.560351" />
    <g
       id="g24"
       transform="matrix(0.57098517,0,0,0.54991575,-46.623861,-245.6993)">
		<path
   class="st6"
   d="m 318.43,529.6 -12.26,-5.05 c 0,0 -13.39,10.56 -39.67,9.63 -26.29,0.92 -39.93,-9.63 -39.93,-9.63 l -13.17,5.42 c 7.75,6.18 24.47,15.92 52.97,16 27.1,0.08 43.48,-9.22 52.06,-16.37 z"
   id="path24"
   style="fill:#9ca3af" />

	</g>
    <path
       class="st4"
       d="m 75.230082,45.745046 c 0,0 0.205662,0.137488 0.588112,0.39044 0.388277,0.247463 0.936423,0.654401 1.678707,1.088833 0.37684,0.214468 0.793667,0.450932 1.244745,0.709392 0.451076,0.25846 0.930704,0.544416 1.484568,0.786379 1.096291,0.505923 2.29535,1.138327 3.699984,1.633251 0.696598,0.26396 1.416029,0.544416 2.164032,0.824874 0.765116,0.225465 1.564482,0.456429 2.375284,0.698391 1.615887,0.544418 3.408798,0.791879 5.213103,1.209816 0.902154,0.225465 1.849992,0.296955 2.797831,0.423435 0.953537,0.115479 1.912791,0.236464 2.877766,0.357445 1.952756,0.13198 3.939786,0.170472 5.921116,0.25846 1.95848,-0.04399 3.99117,-0.109997 5.93824,-0.208967 0.96497,-0.115479 1.92423,-0.230964 2.87207,-0.346448 0.94784,-0.115479 1.88424,-0.197969 2.78639,-0.428934 1.81002,-0.395939 3.5915,-0.687394 5.20169,-1.237309 0.8108,-0.252963 1.61589,-0.450933 2.36958,-0.725889 0.74798,-0.291457 1.46171,-0.571913 2.15262,-0.846872 0.34259,-0.137488 0.68518,-0.269459 1.01063,-0.395939 0.31404,-0.159477 0.62808,-0.313451 0.93071,-0.461929 0.61097,-0.291455 1.18195,-0.571912 1.72438,-0.835871 1.06205,-0.560914 1.94137,-1.132827 2.69506,-1.561762 1.42175,-0.978849 2.23825,-1.534266 2.23825,-1.534266 0,0 -0.19423,0.15397 -0.55956,0.439934 -0.36543,0.280458 -0.87932,0.720389 -1.58162,1.226312 -0.73086,0.467429 -1.58736,1.077835 -2.62654,1.699239 -0.53102,0.291457 -1.102,0.599409 -1.69583,0.923859 -0.2969,0.159477 -0.60524,0.324451 -0.92501,0.494923 -0.32545,0.142976 -0.66233,0.285958 -1.00492,0.434435 -0.69089,0.296954 -1.40462,0.604908 -2.15262,0.918358 -0.74799,0.291458 -1.55877,0.522422 -2.37529,0.802878 -1.62159,0.599409 -3.40878,0.962353 -5.24736,1.363792 -0.91357,0.241961 -1.87282,0.329949 -2.83779,0.461929 -0.96496,0.12647 -1.94134,0.252961 -2.92344,0.379441 -1.98133,0.120989 -3.94552,0.203477 -5.97823,0.263959 -2.00988,-0.115479 -4.01973,-0.164964 -5.989629,-0.31895 -0.982086,-0.13198 -1.958477,-0.25846 -2.917731,-0.39044 -0.959256,-0.137487 -1.918511,-0.214468 -2.826383,-0.45643 -1.832857,-0.423436 -3.631466,-0.736887 -5.253071,-1.336296 -0.8165,-0.26396 -1.615886,-0.52242 -2.386699,-0.769883 -0.748004,-0.307951 -1.467434,-0.610405 -2.158335,-0.89636 -1.410332,-0.52792 -2.586559,-1.226313 -3.665715,-1.787227 -0.542448,-0.269459 -1.016357,-0.582912 -1.461737,-0.863368 -0.445357,-0.274959 -0.84505,-0.538918 -1.216191,-0.769883 -0.72515,-0.467429 -1.239048,-0.918359 -1.615887,-1.182319 -0.371142,-0.285955 -0.56528,-0.434433 -0.56528,-0.434433 z"
       id="path25"
       style="fill:#737c85;stroke-width:0.560351" />
    <path
       class="st8"
       d="m 128.2004,42.764504 c -0.76512,0.599406 -1.61589,1.105329 -2.4838,1.572758 -0.86218,0.472929 -1.75864,0.885364 -2.67221,1.264807 -0.45108,0.203457 -0.91929,0.362945 -1.38179,0.527919 -0.4682,0.17598 -0.93642,0.32445 -1.41032,0.467427 -0.94215,0.313453 -1.9071,0.538918 -2.86635,0.786381 l -1.46172,0.307951 c -0.48534,0.115479 -0.98211,0.164965 -1.47315,0.247463 -0.49104,0.06599 -0.98208,0.159478 -1.47885,0.203478 l -1.48456,0.142975 c -0.99351,0.115479 -1.98703,0.115479 -2.98054,0.170472 -0.50248,0.02198 -0.99922,0.0054 -1.49599,0.0054 l -1.49026,-0.0054 h 0.0284 l -1.5017,0.0054 c -0.50247,0 -1.00492,0.01642 -1.50169,-0.0054 -0.99352,-0.06048 -2.00417,-0.06048 -2.991974,-0.17598 L 98.052244,48.13718 c -0.496763,-0.04949 -0.987807,-0.137487 -1.484569,-0.208968 -0.496762,-0.07698 -0.987806,-0.13198 -1.478849,-0.247462 L 93.621392,47.372797 C 92.650721,47.125334 91.680049,46.899869 90.73221,46.586418 90.25828,46.443443 89.778652,46.289464 89.31616,46.113489 88.847949,45.943017 88.374039,45.78354 87.922963,45.585571 87.003675,45.206129 86.10722,44.788193 85.233618,44.320763 c -0.873602,-0.467426 -1.724373,-0.973349 -2.500904,-1.567258 0.411109,0.26396 0.845051,0.500423 1.278991,0.731388 0.439662,0.225465 0.873624,0.45093 1.324701,0.6489 0.890736,0.406938 1.804306,0.764383 2.740729,1.083333 0.924985,0.32445 1.861407,0.632404 2.814945,0.874368 0.947838,0.269459 1.912813,0.461929 2.872067,0.670895 0.970671,0.15397 1.935624,0.351948 2.912014,0.46743 0.485346,0.06048 0.97639,0.142974 1.461715,0.181466 l 1.473152,0.12647 c 0.982092,0.09899 1.969902,0.08799 2.946282,0.137488 0.49677,0.01642 0.98781,-0.0054 1.47885,-0.01107 l 1.47885,-0.022 h 0.0109 0.0109 l 1.46744,0.022 c 0.48534,0.0054 0.9821,0.02749 1.46743,0.01107 0.98211,-0.04949 1.96421,-0.0385 2.93488,-0.13198 l 1.46171,-0.12647 c 0.49107,-0.0385 0.9764,-0.120989 1.46174,-0.181467 0.97067,-0.115479 1.92993,-0.302454 2.8949,-0.467429 0.95353,-0.208966 1.9185,-0.395939 2.85491,-0.670895 0.94784,-0.241964 1.87854,-0.549918 2.79783,-0.874368 0.91928,-0.32445 1.83285,-0.676395 2.72359,-1.083333 0.44538,-0.19797 0.87932,-0.423435 1.31327,-0.6489 0.45109,-0.219968 0.87362,-0.456432 1.28472,-0.725889 z"
       id="path26"
       style="opacity:0.3;fill:#8b9299;stroke-width:0.560351" />
    <path
       class="st2"
       d="m 41.165109,59.097 c 0,0 1.987028,46.99581 -0.885017,55.72296 -2.872069,8.72718 -5.304455,-3.61844 -5.304455,-3.61844 0,0 3.094736,14.25931 -4.196749,15.96406 -7.29148,1.70473 -24.0841548,-2.34265 -24.0841548,-2.34265 0,0 8.2907048,6.17005 19.0823248,9.34307 10.791612,3.17301 16.050401,2.88156 16.050401,2.88156 l 3.597196,-8.69967 c -0.0064,0 2.152616,-50.911198 -4.259546,-69.25089 z"
       id="path96"
       style="fill:#737c85;stroke-width:0.560351" />
    <path
       class="st2"
       d="m 173.55373,59.487442 c 0,0 -6.65197,49.376938 -4.44226,53.842258 2.20972,4.47082 7.06879,-6.59898 7.06879,-6.59898 0,0 -3.97975,20.00592 0,22.98647 3.97977,2.98054 6.85182,-2.98055 6.85182,-2.98055 0,0 -0.76512,4.73478 6.40647,3.81641 7.17157,-0.92386 11.71089,-3.173 11.71089,-3.173 0,0 -9.61539,6.34052 -16.24452,7.89129 -6.62913,1.54526 -15.49084,2.62308 -15.49084,2.62308 l -3.31741,-9.53552 c 0,-0.0108 -1.35895,-37.592246 7.45706,-68.871458 z"
       id="path97"
       style="fill:#737c85;stroke-width:0.560351" />
    <path
       class="st3"
       d="m 45.418958,128.34789 c 0,0 0,0.40145 0.0108,1.15483 0.137036,9.83249 1.730069,79.57281 19.37924,95.98229 19.00238,17.6633 71.595842,17.87777 82.199022,-4.04186 10.6089,-21.91966 19.01382,-100.45313 19.01382,-100.45313 0,0 -0.5196,44.04275 1.31326,59.59436 1.83285,15.55162 6.76617,62.6519 6.76617,62.6519 0,0 -35.34969,9.58505 -74.976081,8.15528 -39.626364,-1.4298 -60.84418,-8.41924 -60.84418,-8.41924 0,0 7.405686,-97.09862 7.131614,-114.21749"
       id="path98"
       style="fill:#8b9299;stroke-width:0.560351" />
    <path
       class="st4"
       d="m 105.76066,251.694 c 0,0 -0.007,0 -0.007,0 -0.35403,0 -36.074861,-0.22546 -68.027184,-8.02327 -0.205662,-0.044 -0.342592,-0.23648 -0.31976,-0.43993 0.07984,-0.6599 7.891012,-66.14389 7.891012,-95.64136 0,-4.66879 -0.199836,-10.3549 -0.588113,-16.9154 l -2.181167,6.92345 c -0.05698,0.18144 -0.222668,0.29693 -0.433941,0.28594 -28.617776,-1.82021 -40.3686517,-17.6248 -40.4828461,-17.78427 -0.085651,-0.12099 -0.097077,-0.28046 -0.02855,-0.41794 1.0793313,-2.05668 26.4767524,-50.366784 29.9426314,-55.206044 3.528694,-4.932744 6.069565,-5.735621 6.178073,-5.768616 L 82.869096,40.801304 c 0.142648,-0.055 0.302624,-0.033 0.422526,0.055 0.07424,0.055 7.873876,5.719125 22.519648,5.207705 0.65664,0.022 1.2676,0.033 1.86713,0.033 13.45812,0 20.4698,-5.185706 20.53833,-5.240699 0.12,-0.09348 0.27979,-0.109997 0.42254,-0.055 l 45.19917,17.916255 c 0.0742,0.01642 2.60942,0.824874 6.14381,5.757617 3.46016,4.83926 28.85759,53.154868 29.94246,55.206058 0.0686,0.13192 0.0514,0.29145 -0.0343,0.41793 -0.11412,0.15948 -11.86507,15.96405 -40.48283,17.78426 -0.20546,0.0166 -0.37114,-0.10451 -0.43397,-0.28594 l -2.18117,-6.92344 c -0.39398,6.5605 -0.58812,12.24663 -0.58812,16.9154 0,29.49749 7.81108,94.98145 7.89105,95.64135 0.0228,0.20348 -0.11412,0.39043 -0.31977,0.43993 -31.9409,7.79781 -67.66176,8.01778 -68.01576,8.02327 z m -67.467597,-8.72168 c 31.712499,7.67685 67.016517,7.90779 67.467597,7.90779 0.45679,0 35.75509,-0.23645 67.46762,-7.90779 -0.62238,-5.26268 -7.85104,-66.96871 -7.85104,-95.38288 0,-5.21869 0.24551,-11.6912 0.73084,-19.24155 0.0109,-0.19797 0.16552,-0.35744 0.37114,-0.37944 0.21699,-0.022 0.39399,0.099 0.45108,0.28596 l 2.76927,8.79315 c 26.24248,-1.78173 37.93626,-15.43063 39.36374,-17.22335 -1.92993,-3.66245 -26.45376,-50.256814 -29.76546,-54.887105 -3.33456,-4.657785 -5.71557,-5.449663 -5.73839,-5.455163 L 128.54867,41.642675 c -1.31896,0.923859 -8.90164,5.697127 -22.73091,5.235198 -0.60524,0.02198 -1.22761,0.03299 -1.83858,0.03299 -12.687284,0 -19.733245,-4.393827 -21.000822,-5.268192 L 37.996135,59.470933 c -0.05718,0.022 -2.432385,0.813875 -5.766944,5.471661 -3.311713,4.624792 -27.8412366,51.224656 -29.7654561,54.887096 1.4217515,1.79272 13.1155291,15.44162 39.3637241,17.22335 l 2.769279,-8.79314 c 0.0628,-0.18697 0.234086,-0.30245 0.451078,-0.28595 0.205446,0.022 0.359704,0.18147 0.376839,0.37944 0.485346,7.55033 0.730868,14.02284 0.730868,19.24156 -0.0108,28.40863 -7.240099,90.11469 -7.86246,95.37737 z"
       id="path99"
       style="fill:#737c85;stroke-width:0.560351" />
    <g
       id="g100"
       transform="matrix(0.57098517,0,0,0.54991575,-46.623861,-245.6993)">
		<path
   class="st14"
   d="m 386.58,655.23 c -0.01,-4.79 0.61,-9.51 1.45,-14.19 0.87,-4.67 2.05,-9.29 3.51,-13.82 1.5,-4.52 3.3,-8.96 5.46,-13.22 2.24,-4.23 4.81,-8.31 8.04,-11.85 -1.81,4.43 -3.54,8.74 -5.16,13.11 -1.57,4.39 -3.07,8.78 -4.54,13.2 l -4.27,13.34 c -1.44,4.46 -2.86,8.94 -4.49,13.43 z"
   id="path100"
   style="fill:#9ca3af" />

	</g>
    <g
       id="g105"
       transform="matrix(0.57098517,0,0,0.54991575,-46.623861,-245.6993)">
		<path
   class="st14"
   d="m 399.03,681.8 c 0.73,-5.09 1.94,-10.05 3.28,-14.97 1.37,-4.91 2.93,-9.76 4.69,-14.53 1.77,-4.78 3.71,-9.5 5.94,-14.09 2.25,-4.58 4.69,-9.12 7.77,-13.24 -1.59,4.89 -3.21,9.66 -4.86,14.45 -1.67,4.77 -3.34,9.54 -5.1,14.28 -1.76,4.74 -3.57,9.46 -5.48,14.16 -1.94,4.67 -3.92,9.35 -6.24,13.94 z"
   id="path105"
   style="fill:#9ca3af" />

	</g>
    <g
       id="g106"
       transform="matrix(0.57098517,0,0,0.54991575,-46.623861,-245.6993)">
		<path
   class="st14"
   d="m 127.6,600.59 c 3.1,5.24 5.68,10.74 8.04,16.33 2.37,5.58 4.46,11.28 6.27,17.07 1.79,5.8 3.36,11.68 4.46,17.67 1.1,5.98 1.86,12.07 1.73,18.16 -1.53,-5.9 -3.12,-11.67 -4.77,-17.43 -1.7,-5.75 -3.48,-11.47 -5.24,-17.2 l -5.38,-17.2 c -1.78,-5.76 -3.54,-11.52 -5.11,-17.4 z"
   id="path106"
   style="fill:#9ca3af" />

	</g>
    <g
       id="g107"
       transform="matrix(0.57098517,0,0,0.54991575,-46.623861,-245.6993)">
		<path
   class="st14"
   d="m 134.8,585.73 c 2.2,3.36 3.7,7.09 5.01,10.82 1.28,3.75 2.27,7.59 3.05,11.46 0.8,3.87 1.32,7.79 1.66,11.72 0.16,1.97 0.22,3.95 0.29,5.92 -0.02,1.99 -0.02,3.97 -0.2,5.96 -0.7,-1.89 -1.21,-3.79 -1.74,-5.69 -0.51,-1.9 -1.01,-3.8 -1.45,-5.7 -0.92,-3.8 -1.7,-7.61 -2.48,-11.42 -0.76,-3.81 -1.47,-7.63 -2.17,-11.46 -0.68,-3.83 -1.33,-7.67 -1.97,-11.61 z"
   id="path107"
   style="fill:#9ca3af" />

	</g>
  </g>
</svg>
